<svg width="40" height="42" viewBox="0 0 40 42" fill="none" xmlns="http://www.w3.org/2000/svg">
<path fill-rule="evenodd" clip-rule="evenodd" d="M21.6698 24.6731C23.0745 24.6731 24.2178 25.8083 24.2178 27.2036V30.7923C24.2178 31.0921 24.4582 31.3325 24.7662 31.3395H26.9898C28.7422 31.3395 30.1667 29.9325 30.1667 28.2035V18.0255C30.1585 17.4305 29.875 16.8705 29.3885 16.4983L21.6967 10.364C20.6642 9.54613 19.2198 9.54613 18.1838 10.3663L10.5445 16.496C10.0393 16.8798 9.75583 17.4398 9.75 18.0453V28.2035C9.75 29.9325 11.1745 31.3395 12.9268 31.3395H15.1715C15.4877 31.3395 15.7443 31.0886 15.7443 30.7806C15.7443 30.713 15.7525 30.6453 15.7665 30.5811V27.2036C15.7665 25.8165 16.9028 24.6825 18.297 24.6731H21.6698ZM26.9898 33.0895H24.7452C23.4595 33.0591 22.4678 32.05 22.4678 30.7923V27.2036C22.4678 26.7731 22.1097 26.4231 21.6698 26.4231H18.3028C17.8723 26.4255 17.5165 26.7766 17.5165 27.2036V30.7806C17.5165 30.8681 17.5048 30.9521 17.4803 31.0315C17.3543 32.1865 16.3673 33.0895 15.1715 33.0895H12.9268C10.2097 33.0895 8 30.8973 8 28.2035V18.0371C8.01167 16.8775 8.546 15.8158 9.46883 15.117L17.093 8.99779C18.7718 7.66779 21.111 7.66779 22.7863 8.99546L30.4653 15.1205C31.3672 15.8076 31.9015 16.867 31.9167 18.0126V28.2035C31.9167 30.8973 29.707 33.0895 26.9898 33.0895Z" fill="#969CB4"/>
</svg>
