<svg width="545" height="885" viewBox="0 0 545 885" fill="none" xmlns="http://www.w3.org/2000/svg">
<path d="M-16.9191 401.958L57.7471 372.883L120.26 423.008L108.107 502.209L33.441 531.284L-29.0721 481.159L-16.9191 401.958Z" stroke="url(#paint0_linear_658_51)"/>
<path d="M229.273 307.887L303.94 278.811L366.453 328.936L354.3 408.137L279.633 437.212L217.12 387.087L229.273 307.887Z" stroke="url(#paint1_linear_658_51)"/>
<path d="M-72.0067 257.79L2.65949 228.715L65.1727 278.84L53.0196 358.04L-21.6466 387.116L-84.1598 336.991L-72.0067 257.79Z" stroke="#524F4F"/>
<path d="M174.186 163.718L248.852 134.643L311.365 184.768L299.212 263.969L224.546 293.044L162.033 242.919L174.186 163.718Z" stroke="#524F4F"/>
<path d="M79.557 281.666L153.147 253.01L214.76 302.412L202.782 380.472L129.191 409.128L67.579 359.725L79.557 281.666Z" stroke="#71DBB7" stroke-width="3"/>
<path d="M135.253 429.062L209.919 399.986L272.432 450.111L260.279 529.312L185.613 558.387L123.1 508.262L135.253 429.062Z" stroke="url(#paint2_linear_658_51)"/>
<path d="M189.335 570.597L264.001 541.522L326.514 591.647L314.361 670.847L239.695 699.923L177.182 649.797L189.335 570.597Z" stroke="#524F4F"/>
<path d="M99.2643 690.263L173.93 661.187L236.444 711.312L224.291 790.513L149.624 819.588L87.1112 769.463L99.2643 690.263Z" stroke="url(#paint3_linear_658_51)"/>
<path d="M287.023 457.385L360.613 428.729L422.225 478.132L410.247 556.191L336.657 584.847L275.045 535.445L287.023 457.385Z" stroke="#71DBB7" stroke-width="3"/>
<path d="M24.3231 138.75L98.9893 109.674L161.502 159.799L149.349 239L74.6832 268.075L12.17 217.95L24.3231 138.75Z" stroke="url(#paint4_linear_658_51)"/>
<defs>
<linearGradient id="paint0_linear_658_51" x1="57.8347" y1="372.312" x2="33.3534" y2="531.855" gradientUnits="userSpaceOnUse">
<stop stop-color="#C0C0C0"/>
<stop offset="1" stop-color="#C0C0C0" stop-opacity="0"/>
</linearGradient>
<linearGradient id="paint1_linear_658_51" x1="304.027" y1="278.241" x2="279.546" y2="437.783" gradientUnits="userSpaceOnUse">
<stop stop-color="#C0C0C0"/>
<stop offset="1" stop-color="#C0C0C0" stop-opacity="0"/>
</linearGradient>
<linearGradient id="paint2_linear_658_51" x1="210.007" y1="399.416" x2="185.526" y2="558.958" gradientUnits="userSpaceOnUse">
<stop stop-color="#C0C0C0"/>
<stop offset="1" stop-color="#C0C0C0" stop-opacity="0"/>
</linearGradient>
<linearGradient id="paint3_linear_658_51" x1="174.018" y1="660.617" x2="149.537" y2="820.159" gradientUnits="userSpaceOnUse">
<stop stop-color="#C0C0C0"/>
<stop offset="1" stop-color="#C0C0C0" stop-opacity="0"/>
</linearGradient>
<linearGradient id="paint4_linear_658_51" x1="99.0769" y1="109.104" x2="74.5956" y2="268.646" gradientUnits="userSpaceOnUse">
<stop stop-color="#C0C0C0"/>
<stop offset="1" stop-color="#C0C0C0" stop-opacity="0"/>
</linearGradient>
</defs>
</svg>
