<svg width="35" height="41" viewBox="0 0 35 41" fill="none" xmlns="http://www.w3.org/2000/svg">
<path fill-rule="evenodd" clip-rule="evenodd" d="M26.7183 27.8459C26.7183 31.6912 21.445 32.1357 17.4795 32.1357L17.1957 32.1355C14.6692 32.1294 8.23833 31.9699 8.23833 27.8226C8.23833 24.0557 13.2997 23.5523 17.2351 23.5333L17.7633 23.533C20.2896 23.5391 26.7183 23.6986 26.7183 27.8459ZM17.4795 25.2827C12.5083 25.2827 9.98833 26.1367 9.98833 27.8226C9.98833 29.5236 12.5083 30.3857 17.4795 30.3857C22.4495 30.3857 24.9683 29.5317 24.9683 27.8459C24.9683 26.1449 22.4495 25.2827 17.4795 25.2827ZM17.4795 8.95361C20.8955 8.95361 23.6733 11.7326 23.6733 15.1486C23.6733 18.5646 20.8955 21.3424 17.4795 21.3424H17.4422C14.0332 21.3319 11.2717 18.5518 11.2833 15.1451C11.2833 11.7326 14.0623 8.95361 17.4795 8.95361ZM17.4795 10.6196C14.9817 10.6196 12.9493 12.6508 12.9493 15.1486C12.9412 17.6383 14.9583 19.6683 17.4457 19.6776L17.4795 20.5106V19.6776C19.9762 19.6776 22.0073 17.6453 22.0073 15.1486C22.0073 12.6508 19.9762 10.6196 17.4795 10.6196Z" fill="#969CB4"/>
</svg>
