<svg width="41" height="40" viewBox="0 0 41 40" fill="none" xmlns="http://www.w3.org/2000/svg">
<path fill-rule="evenodd" clip-rule="evenodd" d="M31.4015 22.8874C31.8833 22.9236 32.2438 23.3447 32.2076 23.8266L31.986 26.7537C31.8028 29.1687 29.7646 31.0599 27.3438 31.0599H13.8105C11.3896 31.0599 9.35148 29.1687 9.16831 26.7537L8.94665 23.8266C8.91048 23.3447 9.27215 22.9236 9.75398 22.8874C10.2381 22.8699 10.6558 23.2117 10.6931 23.6947L10.9136 26.6207C11.028 28.1281 12.2996 29.3099 13.8105 29.3099H27.3438C28.8546 29.3099 30.1275 28.1281 30.2406 26.6207L30.4623 23.6947C30.4996 23.2117 30.9278 22.8687 31.4015 22.8874ZM22.0824 8.02979C23.8358 8.02979 25.2884 9.34376 25.5072 11.0386L27.805 11.0397C30.2503 11.0397 32.2383 13.0335 32.2383 15.4858V19.498C32.2383 19.8095 32.0727 20.0965 31.8055 20.2528C28.9258 21.9393 25.2779 22.9229 21.452 23.0541L21.4524 25.1525C21.4524 25.6355 21.0604 26.0275 20.5774 26.0275C20.0944 26.0275 19.7024 25.6355 19.7024 25.1525L19.7016 23.0544C15.8795 22.9244 12.2313 21.9405 9.3495 20.2528C9.08116 20.0965 8.91666 19.8095 8.91666 19.498V15.4742C8.91666 13.0288 10.9105 11.0397 13.3617 11.0397L15.6475 11.0386C15.8663 9.34376 17.319 8.02979 19.0724 8.02979H22.0824ZM27.805 12.7897H13.3617C11.8753 12.7897 10.6667 13.9937 10.6667 15.4742V18.9882C13.436 20.4929 16.9273 21.3176 20.5612 21.3192L20.5774 21.3177L20.5903 21.3181L21.1458 21.3123C24.5826 21.2305 27.8611 20.4151 30.4883 18.9882V15.4858C30.4883 13.9983 29.2855 12.7897 27.805 12.7897ZM22.0824 9.77979H19.0724C18.2868 9.77979 17.6237 10.3144 17.4278 11.0389H23.727C23.5311 10.3144 22.8679 9.77979 22.0824 9.77979Z" fill="#969CB4"/>
</svg>
