<svg width="119" height="122" viewBox="0 0 119 122" fill="none" xmlns="http://www.w3.org/2000/svg">
<circle cx="59.8" cy="69" r="4.6" fill="#C4C4C4" fill-opacity="0.04"/>
<circle cx="59.8" cy="4.6" r="4.6" fill="#C4C4C4" fill-opacity="0.04"/>
<circle cx="96.6" cy="69" r="4.6" fill="#C4C4C4" fill-opacity="0.04"/>
<circle cx="96.6" cy="4.6" r="4.6" fill="#C4C4C4" fill-opacity="0.04"/>
<circle cx="23" cy="69" r="4.6" fill="#C4C4C4" fill-opacity="0.04"/>
<circle cx="23" cy="4.6" r="4.6" fill="#C4C4C4" fill-opacity="0.04"/>
<circle cx="59.8" cy="101.2" r="4.6" fill="#C4C4C4" fill-opacity="0.04"/>
<circle cx="59.8" cy="36.7999" r="4.6" fill="#C4C4C4" fill-opacity="0.04"/>
<circle cx="96.6" cy="101.2" r="4.6" fill="#C4C4C4" fill-opacity="0.04"/>
<circle cx="96.6" cy="36.7999" r="4.6" fill="#C4C4C4" fill-opacity="0.04"/>
<circle cx="23" cy="101.2" r="4.6" fill="#C4C4C4" fill-opacity="0.04"/>
<circle cx="23" cy="36.7999" r="4.6" fill="#C4C4C4" fill-opacity="0.04"/>
<circle cx="115" cy="69" r="4.6" fill="#C4C4C4" fill-opacity="0.04"/>
<circle cx="115" cy="4.6" r="4.6" fill="#C4C4C4" fill-opacity="0.04"/>
<circle cx="41.4" cy="69" r="4.6" fill="#C4C4C4" fill-opacity="0.04"/>
<circle cx="41.4" cy="4.6" r="4.6" fill="#C4C4C4" fill-opacity="0.04"/>
<circle cx="78.2" cy="69" r="4.6" fill="#C4C4C4" fill-opacity="0.04"/>
<circle cx="78.2" cy="4.6" r="4.6" fill="#C4C4C4" fill-opacity="0.04"/>
<circle cx="4.6" cy="69" r="4.6" fill="#C4C4C4" fill-opacity="0.04"/>
<circle cx="4.6" cy="4.6" r="4.6" fill="#C4C4C4" fill-opacity="0.04"/>
<circle cx="115" cy="101.2" r="4.6" fill="#C4C4C4" fill-opacity="0.04"/>
<circle cx="115" cy="36.7999" r="4.6" fill="#C4C4C4" fill-opacity="0.04"/>
<circle cx="41.4" cy="101.2" r="4.6" fill="#C4C4C4" fill-opacity="0.04"/>
<circle cx="41.4" cy="36.7999" r="4.6" fill="#C4C4C4" fill-opacity="0.04"/>
<circle cx="78.2" cy="101.2" r="4.6" fill="#C4C4C4" fill-opacity="0.04"/>
<circle cx="78.2" cy="36.7999" r="4.6" fill="#C4C4C4" fill-opacity="0.04"/>
<circle cx="4.6" cy="101.2" r="4.6" fill="#C4C4C4" fill-opacity="0.04"/>
<circle cx="4.6" cy="36.7999" r="4.6" fill="#C4C4C4" fill-opacity="0.04"/>
<circle cx="59.8" cy="85.1" r="4.6" fill="#C4C4C4" fill-opacity="0.04"/>
<circle cx="59.8" cy="20.7" r="4.6" fill="#C4C4C4" fill-opacity="0.04"/>
<circle cx="96.6" cy="85.1" r="4.6" fill="#C4C4C4" fill-opacity="0.04"/>
<circle cx="96.6" cy="20.7" r="4.6" fill="#C4C4C4" fill-opacity="0.04"/>
<circle cx="23" cy="85.1" r="4.6" fill="#C4C4C4" fill-opacity="0.04"/>
<circle cx="23" cy="20.7" r="4.6" fill="#C4C4C4" fill-opacity="0.04"/>
<circle cx="59.8" cy="117.3" r="4.6" fill="#C4C4C4" fill-opacity="0.04"/>
<circle cx="59.8" cy="52.9" r="4.6" fill="#C4C4C4" fill-opacity="0.04"/>
<circle cx="96.6" cy="117.3" r="4.6" fill="#C4C4C4" fill-opacity="0.04"/>
<circle cx="96.6" cy="52.9" r="4.6" fill="#C4C4C4" fill-opacity="0.04"/>
<circle cx="23" cy="117.3" r="4.6" fill="#C4C4C4" fill-opacity="0.04"/>
<circle cx="23" cy="52.9" r="4.6" fill="#C4C4C4" fill-opacity="0.04"/>
<circle cx="115" cy="85.1" r="4.6" fill="#C4C4C4" fill-opacity="0.04"/>
<circle cx="115" cy="20.7" r="4.6" fill="#C4C4C4" fill-opacity="0.04"/>
<circle cx="41.4" cy="85.1" r="4.6" fill="#C4C4C4" fill-opacity="0.04"/>
<circle cx="41.4" cy="20.7" r="4.6" fill="#C4C4C4" fill-opacity="0.04"/>
<circle cx="78.2" cy="85.1" r="4.6" fill="#C4C4C4" fill-opacity="0.04"/>
<circle cx="78.2" cy="20.7" r="4.6" fill="#C4C4C4" fill-opacity="0.04"/>
<circle cx="4.6" cy="85.1" r="4.6" fill="#C4C4C4" fill-opacity="0.04"/>
<circle cx="4.6" cy="20.7" r="4.6" fill="#C4C4C4" fill-opacity="0.04"/>
<circle cx="115" cy="117.3" r="4.6" fill="#C4C4C4" fill-opacity="0.04"/>
<circle cx="115" cy="52.9" r="4.6" fill="#C4C4C4" fill-opacity="0.04"/>
<circle cx="41.4" cy="117.3" r="4.6" fill="#C4C4C4" fill-opacity="0.04"/>
<circle cx="41.4" cy="52.9" r="4.6" fill="#C4C4C4" fill-opacity="0.04"/>
<circle cx="78.2" cy="117.3" r="4.6" fill="#C4C4C4" fill-opacity="0.04"/>
<circle cx="78.2" cy="52.9" r="4.6" fill="#C4C4C4" fill-opacity="0.04"/>
<circle cx="4.6" cy="117.3" r="4.6" fill="#C4C4C4" fill-opacity="0.04"/>
<circle cx="4.6" cy="52.9" r="4.6" fill="#C4C4C4" fill-opacity="0.04"/>
</svg>
