<svg width="40" height="39" viewBox="0 0 40 39" fill="none" xmlns="http://www.w3.org/2000/svg">
<path fill-rule="evenodd" clip-rule="evenodd" d="M20.0932 10.5027C19.9871 10.5027 19.7257 10.5319 19.5869 10.8095L17.4566 15.069C17.1194 15.7422 16.4696 16.21 15.7182 16.3174L10.9489 17.0045C10.6339 17.05 10.5266 17.2834 10.4939 17.3814C10.4647 17.4759 10.4181 17.7162 10.6351 17.9239L14.0837 21.2372C14.6332 21.7657 14.8829 22.5275 14.7522 23.273L13.9402 27.9514C13.8901 28.2442 14.0732 28.4145 14.1549 28.4729C14.2412 28.5382 14.4722 28.6677 14.7581 28.5184L19.0222 26.3075C19.6942 25.961 20.4946 25.961 21.1642 26.3075L25.4272 28.5172C25.7142 28.6654 25.9452 28.5359 26.0327 28.4729C26.1144 28.4145 26.2976 28.2442 26.2474 27.9514L25.4331 23.273C25.3024 22.5275 25.5521 21.7657 26.1016 21.2372L29.5502 17.9239C29.7684 17.7162 29.7217 17.4747 29.6914 17.3814C29.6599 17.2834 29.5526 17.05 29.2376 17.0045L24.4682 16.3174C23.7181 16.21 23.0682 15.7422 22.7311 15.0679L20.5984 10.8095C20.4607 10.5319 20.1994 10.5027 20.0932 10.5027ZM14.4897 30.336C14.0079 30.336 13.5296 30.1844 13.1201 29.8857C12.4131 29.3677 12.0666 28.5125 12.2171 27.6515L13.0291 22.9732C13.0594 22.7994 12.9999 22.6232 12.8716 22.4995L9.42289 19.1862C8.78822 18.5784 8.56072 17.68 8.82906 16.8459C9.09972 16.0024 9.81606 15.3992 10.6992 15.2732L15.4686 14.586C15.6529 14.5604 15.8116 14.4472 15.8909 14.2862L18.0224 10.0255C18.4156 9.24035 19.2089 8.75269 20.0932 8.75269C20.9776 8.75269 21.7709 9.24035 22.1641 10.0255L24.2967 14.285C24.3772 14.4472 24.5347 14.5604 24.7179 14.586L29.4872 15.2732C30.3704 15.3992 31.0867 16.0024 31.3574 16.8459C31.6257 17.68 31.3971 18.5784 30.7624 19.1862L27.3137 22.4995C27.1854 22.6232 27.1271 22.7994 27.1574 22.972L27.9706 27.6515C28.1199 28.5137 27.7734 29.3689 27.0652 29.8857C26.3477 30.4119 25.4132 30.483 24.6211 30.07L20.3592 27.8615C20.1924 27.7752 19.9929 27.7752 19.8261 27.8615L15.5642 30.0712C15.2236 30.2485 14.8561 30.336 14.4897 30.336Z" fill="#969CB4"/>
</svg>
